<svg xmlns="http://www.w3.org/2000/svg" xmlns:xlink="http://www.w3.org/1999/xlink" width="500" zoomAndPan="magnify" viewBox="0 0 375 374.999991" height="500" preserveAspectRatio="xMidYMid meet" version="1.0"><defs><g/><clipPath id="17d6f5f80c"><rect x="0" width="72" y="0" height="122"/></clipPath><clipPath id="dbc3431459"><rect x="0" width="94" y="0" height="122"/></clipPath></defs><g fill="#f3efeb" fill-opacity="1"><g transform="translate(96.087373, 276.204416)"><g><path d="M 5.703125 0.1875 C 4.179688 0.1875 2.753906 -0.101562 1.421875 -0.6875 C 1.273438 -0.75 1.15625 -0.847656 1.0625 -0.984375 C 0.96875 -1.117188 0.921875 -1.265625 0.921875 -1.421875 C 0.921875 -1.628906 0.988281 -1.804688 1.125 -1.953125 C 1.257812 -2.097656 1.4375 -2.171875 1.65625 -2.171875 C 1.78125 -2.171875 1.894531 -2.148438 2 -2.109375 C 3.101562 -1.617188 4.285156 -1.375 5.546875 -1.375 C 7.640625 -1.375 8.6875 -2.0625 8.6875 -3.4375 C 8.6875 -3.800781 8.550781 -4.101562 8.28125 -4.34375 C 8.019531 -4.582031 7.691406 -4.769531 7.296875 -4.90625 C 6.898438 -5.039062 6.332031 -5.207031 5.59375 -5.40625 C 4.625 -5.65625 3.835938 -5.894531 3.234375 -6.125 C 2.640625 -6.363281 2.125 -6.71875 1.6875 -7.1875 C 1.257812 -7.65625 1.046875 -8.273438 1.046875 -9.046875 C 1.046875 -9.734375 1.222656 -10.351562 1.578125 -10.90625 C 1.941406 -11.46875 2.472656 -11.914062 3.171875 -12.25 C 3.878906 -12.582031 4.722656 -12.75 5.703125 -12.75 C 7.023438 -12.75 8.21875 -12.550781 9.28125 -12.15625 C 9.625 -12.03125 9.796875 -11.789062 9.796875 -11.4375 C 9.796875 -11.238281 9.726562 -11.0625 9.59375 -10.90625 C 9.457031 -10.75 9.285156 -10.671875 9.078125 -10.671875 C 9.003906 -10.671875 8.90625 -10.695312 8.78125 -10.75 C 7.84375 -11.070312 6.878906 -11.234375 5.890625 -11.234375 C 4.941406 -11.234375 4.171875 -11.050781 3.578125 -10.6875 C 2.984375 -10.332031 2.6875 -9.832031 2.6875 -9.1875 C 2.6875 -8.75 2.828125 -8.394531 3.109375 -8.125 C 3.390625 -7.851562 3.742188 -7.640625 4.171875 -7.484375 C 4.597656 -7.335938 5.175781 -7.179688 5.90625 -7.015625 C 6.851562 -6.785156 7.617188 -6.554688 8.203125 -6.328125 C 8.785156 -6.109375 9.28125 -5.753906 9.6875 -5.265625 C 10.101562 -4.785156 10.3125 -4.140625 10.3125 -3.328125 C 10.3125 -2.660156 10.117188 -2.054688 9.734375 -1.515625 C 9.347656 -0.984375 8.804688 -0.566406 8.109375 -0.265625 C 7.421875 0.0351562 6.617188 0.1875 5.703125 0.1875 Z M 5.703125 0.1875 "/></g></g></g><g fill="#f3efeb" fill-opacity="1"><g transform="translate(108.43533, 276.204416)"><g><path d="M 2.5625 0.09375 C 2.332031 0.09375 2.140625 0.015625 1.984375 -0.140625 C 1.828125 -0.296875 1.75 -0.488281 1.75 -0.71875 L 1.75 -11.828125 C 1.75 -12.054688 1.828125 -12.25 1.984375 -12.40625 C 2.140625 -12.570312 2.332031 -12.65625 2.5625 -12.65625 C 2.78125 -12.65625 2.972656 -12.570312 3.140625 -12.40625 C 3.304688 -12.25 3.390625 -12.054688 3.390625 -11.828125 L 3.390625 -7.03125 L 10.203125 -7.03125 L 10.203125 -11.828125 C 10.203125 -12.054688 10.28125 -12.25 10.4375 -12.40625 C 10.59375 -12.570312 10.785156 -12.65625 11.015625 -12.65625 C 11.242188 -12.65625 11.4375 -12.570312 11.59375 -12.40625 C 11.757812 -12.25 11.84375 -12.054688 11.84375 -11.828125 L 11.84375 -0.71875 C 11.84375 -0.488281 11.757812 -0.296875 11.59375 -0.140625 C 11.4375 0.015625 11.242188 0.09375 11.015625 0.09375 C 10.785156 0.09375 10.59375 0.015625 10.4375 -0.140625 C 10.28125 -0.296875 10.203125 -0.488281 10.203125 -0.71875 L 10.203125 -5.515625 L 3.390625 -5.515625 L 3.390625 -0.71875 C 3.390625 -0.488281 3.304688 -0.296875 3.140625 -0.140625 C 2.972656 0.015625 2.78125 0.09375 2.5625 0.09375 Z M 2.5625 0.09375 "/></g></g></g><g fill="#f3efeb" fill-opacity="1"><g transform="translate(123.285285, 276.204416)"><g><path d="M 1.703125 0.09375 C 1.460938 0.09375 1.269531 0.015625 1.125 -0.140625 C 0.976562 -0.296875 0.90625 -0.488281 0.90625 -0.71875 C 0.90625 -0.8125 0.929688 -0.929688 0.984375 -1.078125 L 5.578125 -11.921875 C 5.671875 -12.128906 5.804688 -12.300781 5.984375 -12.4375 C 6.160156 -12.582031 6.375 -12.65625 6.625 -12.65625 L 6.796875 -12.65625 C 7.054688 -12.65625 7.269531 -12.582031 7.4375 -12.4375 C 7.613281 -12.300781 7.75 -12.128906 7.84375 -11.921875 L 12.4375 -1.078125 C 12.5 -0.929688 12.53125 -0.8125 12.53125 -0.71875 C 12.53125 -0.488281 12.453125 -0.296875 12.296875 -0.140625 C 12.148438 0.015625 11.957031 0.09375 11.71875 0.09375 C 11.550781 0.09375 11.394531 0.046875 11.25 -0.046875 C 11.113281 -0.140625 11.007812 -0.257812 10.9375 -0.40625 L 9.78125 -3.21875 L 3.65625 -3.21875 L 2.484375 -0.40625 C 2.410156 -0.257812 2.304688 -0.140625 2.171875 -0.046875 C 2.035156 0.046875 1.878906 0.09375 1.703125 0.09375 Z M 4.28125 -4.71875 L 9.140625 -4.71875 L 6.71875 -10.5625 Z M 4.28125 -4.71875 "/></g></g></g><g fill="#f3efeb" fill-opacity="1"><g transform="translate(137.973239, 276.204416)"><g><path d="M 2.5625 0.09375 C 2.332031 0.09375 2.140625 0.015625 1.984375 -0.140625 C 1.828125 -0.296875 1.75 -0.488281 1.75 -0.71875 L 1.75 -11.46875 C 1.75 -11.789062 1.863281 -12.066406 2.09375 -12.296875 C 2.320312 -12.535156 2.597656 -12.65625 2.921875 -12.65625 L 3.15625 -12.65625 C 3.53125 -12.65625 3.859375 -12.472656 4.140625 -12.109375 L 11.0625 -2.109375 L 11.0625 -11.828125 C 11.0625 -12.054688 11.140625 -12.25 11.296875 -12.40625 C 11.453125 -12.570312 11.644531 -12.65625 11.875 -12.65625 C 12.101562 -12.65625 12.296875 -12.570312 12.453125 -12.40625 C 12.617188 -12.25 12.703125 -12.054688 12.703125 -11.828125 L 12.703125 -1.078125 C 12.703125 -0.753906 12.582031 -0.476562 12.34375 -0.25 C 12.113281 -0.0195312 11.835938 0.09375 11.515625 0.09375 L 11.296875 0.09375 C 11.109375 0.09375 10.929688 0.046875 10.765625 -0.046875 C 10.597656 -0.140625 10.457031 -0.253906 10.34375 -0.390625 L 3.390625 -10.453125 L 3.390625 -0.71875 C 3.390625 -0.488281 3.304688 -0.296875 3.140625 -0.140625 C 2.972656 0.015625 2.78125 0.09375 2.5625 0.09375 Z M 2.5625 0.09375 "/></g></g></g><g fill="#f3efeb" fill-opacity="1"><g transform="translate(153.687189, 276.204416)"><g><path d="M 2.5625 0.09375 C 2.332031 0.09375 2.140625 0.015625 1.984375 -0.140625 C 1.828125 -0.296875 1.75 -0.488281 1.75 -0.71875 L 1.75 -11.828125 C 1.75 -12.054688 1.828125 -12.25 1.984375 -12.40625 C 2.140625 -12.570312 2.332031 -12.65625 2.5625 -12.65625 C 2.78125 -12.65625 2.972656 -12.570312 3.140625 -12.40625 C 3.304688 -12.25 3.390625 -12.054688 3.390625 -11.828125 L 3.390625 -6.109375 L 9.546875 -12.359375 C 9.710938 -12.554688 9.914062 -12.65625 10.15625 -12.65625 C 10.351562 -12.65625 10.523438 -12.582031 10.671875 -12.4375 C 10.828125 -12.300781 10.90625 -12.132812 10.90625 -11.9375 C 10.90625 -11.695312 10.835938 -11.507812 10.703125 -11.375 L 6.546875 -7.234375 L 11.328125 -1.21875 C 11.453125 -1.050781 11.515625 -0.878906 11.515625 -0.703125 C 11.523438 -0.484375 11.453125 -0.296875 11.296875 -0.140625 C 11.140625 0.015625 10.953125 0.09375 10.734375 0.09375 C 10.453125 0.09375 10.234375 -0.015625 10.078125 -0.234375 L 5.4375 -6.15625 L 3.390625 -4.09375 L 3.390625 -0.71875 C 3.390625 -0.488281 3.304688 -0.296875 3.140625 -0.140625 C 2.972656 0.015625 2.78125 0.09375 2.5625 0.09375 Z M 2.5625 0.09375 "/></g></g></g><g fill="#f3efeb" fill-opacity="1"><g transform="translate(167.00715, 276.204416)"><g><path d="M 1.703125 0.09375 C 1.460938 0.09375 1.269531 0.015625 1.125 -0.140625 C 0.976562 -0.296875 0.90625 -0.488281 0.90625 -0.71875 C 0.90625 -0.8125 0.929688 -0.929688 0.984375 -1.078125 L 5.578125 -11.921875 C 5.671875 -12.128906 5.804688 -12.300781 5.984375 -12.4375 C 6.160156 -12.582031 6.375 -12.65625 6.625 -12.65625 L 6.796875 -12.65625 C 7.054688 -12.65625 7.269531 -12.582031 7.4375 -12.4375 C 7.613281 -12.300781 7.75 -12.128906 7.84375 -11.921875 L 12.4375 -1.078125 C 12.5 -0.929688 12.53125 -0.8125 12.53125 -0.71875 C 12.53125 -0.488281 12.453125 -0.296875 12.296875 -0.140625 C 12.148438 0.015625 11.957031 0.09375 11.71875 0.09375 C 11.550781 0.09375 11.394531 0.046875 11.25 -0.046875 C 11.113281 -0.140625 11.007812 -0.257812 10.9375 -0.40625 L 9.78125 -3.21875 L 3.65625 -3.21875 L 2.484375 -0.40625 C 2.410156 -0.257812 2.304688 -0.140625 2.171875 -0.046875 C 2.035156 0.046875 1.878906 0.09375 1.703125 0.09375 Z M 4.28125 -4.71875 L 9.140625 -4.71875 L 6.71875 -10.5625 Z M 4.28125 -4.71875 "/></g></g></g><g fill="#f3efeb" fill-opacity="1"><g transform="translate(181.695103, 276.204416)"><g><path d="M 2.5625 0.09375 C 2.332031 0.09375 2.140625 0.015625 1.984375 -0.140625 C 1.828125 -0.296875 1.75 -0.488281 1.75 -0.71875 L 1.75 -11.734375 C 1.75 -11.960938 1.828125 -12.15625 1.984375 -12.3125 C 2.140625 -12.476562 2.332031 -12.5625 2.5625 -12.5625 L 6.75 -12.5625 C 8.382812 -12.5625 9.609375 -12.222656 10.421875 -11.546875 C 11.234375 -10.878906 11.640625 -10 11.640625 -8.90625 C 11.640625 -8.1875 11.4375 -7.53125 11.03125 -6.9375 C 10.632812 -6.34375 10.050781 -5.914062 9.28125 -5.65625 C 10.144531 -5.425781 10.734375 -4.882812 11.046875 -4.03125 C 11.367188 -3.1875 11.53125 -2.359375 11.53125 -1.546875 L 11.53125 -0.71875 C 11.53125 -0.488281 11.453125 -0.296875 11.296875 -0.140625 C 11.140625 0.015625 10.953125 0.09375 10.734375 0.09375 C 10.472656 0.09375 10.269531 0.0195312 10.125 -0.125 C 9.976562 -0.28125 9.90625 -0.476562 9.90625 -0.71875 L 9.90625 -1.265625 C 9.90625 -1.859375 9.847656 -2.410156 9.734375 -2.921875 C 9.628906 -3.429688 9.375 -3.882812 8.96875 -4.28125 C 8.5625 -4.6875 7.941406 -4.890625 7.109375 -4.890625 L 3.390625 -4.890625 L 3.390625 -0.71875 C 3.390625 -0.488281 3.304688 -0.296875 3.140625 -0.140625 C 2.972656 0.015625 2.78125 0.09375 2.5625 0.09375 Z M 6.640625 -6.4375 C 7.671875 -6.4375 8.488281 -6.640625 9.09375 -7.046875 C 9.707031 -7.460938 10.015625 -8.039062 10.015625 -8.78125 C 10.015625 -9.5 9.75 -10.050781 9.21875 -10.4375 C 8.695312 -10.820312 7.804688 -11.015625 6.546875 -11.015625 L 3.390625 -11.015625 L 3.390625 -6.4375 Z M 6.640625 -6.4375 "/></g></g></g><g fill="#f3efeb" fill-opacity="1"><g transform="translate(195.77106, 276.204416)"><g/></g></g><g fill="#f3efeb" fill-opacity="1"><g transform="translate(201.711036, 276.204416)"><g><path d="M 3.03125 0.1875 C 2.144531 0.1875 1.34375 -0.0195312 0.625 -0.4375 C 0.363281 -0.59375 0.234375 -0.8125 0.234375 -1.09375 C 0.234375 -1.289062 0.296875 -1.460938 0.421875 -1.609375 C 0.546875 -1.765625 0.710938 -1.84375 0.921875 -1.84375 C 1.035156 -1.84375 1.140625 -1.816406 1.234375 -1.765625 C 1.785156 -1.503906 2.347656 -1.375 2.921875 -1.375 C 3.566406 -1.375 4.085938 -1.554688 4.484375 -1.921875 C 4.890625 -2.296875 5.09375 -3 5.09375 -4.03125 L 5.09375 -11.828125 C 5.09375 -12.054688 5.171875 -12.25 5.328125 -12.40625 C 5.484375 -12.570312 5.675781 -12.65625 5.90625 -12.65625 C 6.132812 -12.65625 6.328125 -12.570312 6.484375 -12.40625 C 6.648438 -12.25 6.734375 -12.054688 6.734375 -11.828125 L 6.734375 -4.140625 C 6.734375 -2.566406 6.378906 -1.453125 5.671875 -0.796875 C 4.972656 -0.140625 4.09375 0.1875 3.03125 0.1875 Z M 3.03125 0.1875 "/></g></g></g><g fill="#f3efeb" fill-opacity="1"><g transform="translate(211.358999, 276.204416)"><g><path d="M 1.703125 0.09375 C 1.460938 0.09375 1.269531 0.015625 1.125 -0.140625 C 0.976562 -0.296875 0.90625 -0.488281 0.90625 -0.71875 C 0.90625 -0.8125 0.929688 -0.929688 0.984375 -1.078125 L 5.578125 -11.921875 C 5.671875 -12.128906 5.804688 -12.300781 5.984375 -12.4375 C 6.160156 -12.582031 6.375 -12.65625 6.625 -12.65625 L 6.796875 -12.65625 C 7.054688 -12.65625 7.269531 -12.582031 7.4375 -12.4375 C 7.613281 -12.300781 7.75 -12.128906 7.84375 -11.921875 L 12.4375 -1.078125 C 12.5 -0.929688 12.53125 -0.8125 12.53125 -0.71875 C 12.53125 -0.488281 12.453125 -0.296875 12.296875 -0.140625 C 12.148438 0.015625 11.957031 0.09375 11.71875 0.09375 C 11.550781 0.09375 11.394531 0.046875 11.25 -0.046875 C 11.113281 -0.140625 11.007812 -0.257812 10.9375 -0.40625 L 9.78125 -3.21875 L 3.65625 -3.21875 L 2.484375 -0.40625 C 2.410156 -0.257812 2.304688 -0.140625 2.171875 -0.046875 C 2.035156 0.046875 1.878906 0.09375 1.703125 0.09375 Z M 4.28125 -4.71875 L 9.140625 -4.71875 L 6.71875 -10.5625 Z M 4.28125 -4.71875 "/></g></g></g><g fill="#f3efeb" fill-opacity="1"><g transform="translate(226.046953, 276.204416)"><g><path d="M 2.5625 0 C 2.332031 0 2.140625 -0.078125 1.984375 -0.234375 C 1.828125 -0.390625 1.75 -0.582031 1.75 -0.8125 L 1.75 -11.734375 C 1.75 -11.960938 1.828125 -12.15625 1.984375 -12.3125 C 2.140625 -12.476562 2.332031 -12.5625 2.5625 -12.5625 L 6.171875 -12.5625 C 7.535156 -12.5625 8.695312 -12.257812 9.65625 -11.65625 C 10.613281 -11.050781 11.332031 -10.265625 11.8125 -9.296875 C 12.289062 -8.335938 12.53125 -7.332031 12.53125 -6.28125 C 12.53125 -5.226562 12.289062 -4.21875 11.8125 -3.25 C 11.332031 -2.289062 10.613281 -1.507812 9.65625 -0.90625 C 8.695312 -0.300781 7.535156 0 6.171875 0 Z M 5.96875 -1.53125 C 6.957031 -1.53125 7.820312 -1.726562 8.5625 -2.125 C 9.3125 -2.53125 9.890625 -3.085938 10.296875 -3.796875 C 10.703125 -4.515625 10.90625 -5.34375 10.90625 -6.28125 C 10.90625 -7.21875 10.703125 -8.039062 10.296875 -8.75 C 9.890625 -9.46875 9.3125 -10.023438 8.5625 -10.421875 C 7.820312 -10.828125 6.957031 -11.03125 5.96875 -11.03125 L 3.390625 -11.03125 L 3.390625 -1.53125 Z M 5.96875 -1.53125 "/></g></g></g><g fill="#f3efeb" fill-opacity="1"><g transform="translate(240.824902, 276.204416)"><g><path d="M 2.5625 0.09375 C 2.332031 0.09375 2.140625 0.015625 1.984375 -0.140625 C 1.828125 -0.296875 1.75 -0.488281 1.75 -0.71875 L 1.75 -11.828125 C 1.75 -12.054688 1.828125 -12.25 1.984375 -12.40625 C 2.140625 -12.570312 2.332031 -12.65625 2.5625 -12.65625 C 2.78125 -12.65625 2.972656 -12.570312 3.140625 -12.40625 C 3.304688 -12.25 3.390625 -12.054688 3.390625 -11.828125 L 3.390625 -7.03125 L 10.203125 -7.03125 L 10.203125 -11.828125 C 10.203125 -12.054688 10.28125 -12.25 10.4375 -12.40625 C 10.59375 -12.570312 10.785156 -12.65625 11.015625 -12.65625 C 11.242188 -12.65625 11.4375 -12.570312 11.59375 -12.40625 C 11.757812 -12.25 11.84375 -12.054688 11.84375 -11.828125 L 11.84375 -0.71875 C 11.84375 -0.488281 11.757812 -0.296875 11.59375 -0.140625 C 11.4375 0.015625 11.242188 0.09375 11.015625 0.09375 C 10.785156 0.09375 10.59375 0.015625 10.4375 -0.140625 C 10.28125 -0.296875 10.203125 -0.488281 10.203125 -0.71875 L 10.203125 -5.515625 L 3.390625 -5.515625 L 3.390625 -0.71875 C 3.390625 -0.488281 3.304688 -0.296875 3.140625 -0.140625 C 2.972656 0.015625 2.78125 0.09375 2.5625 0.09375 Z M 2.5625 0.09375 "/></g></g></g><g fill="#f3efeb" fill-opacity="1"><g transform="translate(255.674858, 276.204416)"><g><path d="M 1.703125 0.09375 C 1.460938 0.09375 1.269531 0.015625 1.125 -0.140625 C 0.976562 -0.296875 0.90625 -0.488281 0.90625 -0.71875 C 0.90625 -0.8125 0.929688 -0.929688 0.984375 -1.078125 L 5.578125 -11.921875 C 5.671875 -12.128906 5.804688 -12.300781 5.984375 -12.4375 C 6.160156 -12.582031 6.375 -12.65625 6.625 -12.65625 L 6.796875 -12.65625 C 7.054688 -12.65625 7.269531 -12.582031 7.4375 -12.4375 C 7.613281 -12.300781 7.75 -12.128906 7.84375 -11.921875 L 12.4375 -1.078125 C 12.5 -0.929688 12.53125 -0.8125 12.53125 -0.71875 C 12.53125 -0.488281 12.453125 -0.296875 12.296875 -0.140625 C 12.148438 0.015625 11.957031 0.09375 11.71875 0.09375 C 11.550781 0.09375 11.394531 0.046875 11.25 -0.046875 C 11.113281 -0.140625 11.007812 -0.257812 10.9375 -0.40625 L 9.78125 -3.21875 L 3.65625 -3.21875 L 2.484375 -0.40625 C 2.410156 -0.257812 2.304688 -0.140625 2.171875 -0.046875 C 2.035156 0.046875 1.878906 0.09375 1.703125 0.09375 Z M 4.28125 -4.71875 L 9.140625 -4.71875 L 6.71875 -10.5625 Z M 4.28125 -4.71875 "/></g></g></g><g fill="#f3efeb" fill-opacity="1"><g transform="translate(270.362811, 276.204416)"><g><path d="M 6.046875 0.09375 C 5.554688 0.09375 5.1875 -0.179688 4.9375 -0.734375 L 0.484375 -11.515625 C 0.453125 -11.609375 0.4375 -11.710938 0.4375 -11.828125 C 0.4375 -12.078125 0.503906 -12.273438 0.640625 -12.421875 C 0.785156 -12.578125 0.984375 -12.65625 1.234375 -12.65625 C 1.410156 -12.65625 1.566406 -12.601562 1.703125 -12.5 C 1.835938 -12.394531 1.941406 -12.257812 2.015625 -12.09375 L 6.25 -1.546875 L 10.46875 -12.09375 C 10.539062 -12.257812 10.644531 -12.394531 10.78125 -12.5 C 10.925781 -12.601562 11.082031 -12.65625 11.25 -12.65625 C 11.5 -12.65625 11.695312 -12.578125 11.84375 -12.421875 C 11.988281 -12.273438 12.0625 -12.078125 12.0625 -11.828125 C 12.0625 -11.710938 12.039062 -11.609375 12 -11.515625 L 7.5625 -0.734375 C 7.3125 -0.179688 6.9375 0.09375 6.4375 0.09375 Z M 6.046875 0.09375 "/></g></g></g><g transform="matrix(1, 0, 0, 1, 168, 154)"><g clip-path="url(#17d6f5f80c)"><g fill="#f3efeb" fill-opacity="1"><g transform="translate(0.908896, 91.480961)"><g><path d="M 0.96875 -31.203125 C 0.96875 -32.171875 1.304688 -32.992188 1.984375 -33.671875 C 2.671875 -34.359375 3.457031 -34.703125 4.34375 -34.703125 C 5.300781 -34.703125 6.117188 -34.359375 6.796875 -33.671875 C 7.484375 -32.992188 7.828125 -32.171875 7.828125 -31.203125 C 7.828125 -25.660156 9.050781 -21.039062 11.5 -17.34375 C 13.957031 -13.65625 17.09375 -10.882812 20.90625 -9.03125 C 24.71875 -7.1875 28.769531 -6.265625 33.0625 -6.265625 C 37.363281 -6.265625 41.421875 -7.1875 45.234375 -9.03125 C 49.054688 -10.882812 52.191406 -13.65625 54.640625 -17.34375 C 57.085938 -21.039062 58.3125 -25.660156 58.3125 -31.203125 L 58.3125 -77.34375 L 39.515625 -77.34375 C 38.554688 -77.34375 37.753906 -77.6875 37.109375 -78.375 C 36.460938 -79.0625 36.140625 -79.882812 36.140625 -80.84375 C 36.140625 -81.8125 36.460938 -82.632812 37.109375 -83.3125 C 37.753906 -84 38.554688 -84.34375 39.515625 -84.34375 L 61.8125 -84.34375 C 62.695312 -84.34375 63.476562 -84 64.15625 -83.3125 C 64.84375 -82.632812 65.1875 -81.8125 65.1875 -80.84375 L 65.1875 -31.203125 C 65.1875 -25.179688 64.019531 -20 61.6875 -15.65625 C 59.351562 -11.320312 56.28125 -7.867188 52.46875 -5.296875 C 48.65625 -2.734375 44.457031 -1.007812 39.875 -0.125 C 35.300781 0.757812 30.742188 0.757812 26.203125 -0.125 C 21.660156 -1.007812 17.484375 -2.734375 13.671875 -5.296875 C 9.859375 -7.867188 6.785156 -11.320312 4.453125 -15.65625 C 2.128906 -20 0.96875 -25.179688 0.96875 -31.203125 Z M 0.96875 -31.203125 "/></g></g></g></g></g><g transform="matrix(1, 0, 0, 1, 118, 117)"><g clip-path="url(#dbc3431459)"><g fill="#1d3f69" fill-opacity="1"><g transform="translate(0.479064, 91.21966)"><g><path d="M 8.914062 -72.589844 C 6.703125 -72.589844 4.816406 -73.371094 3.25 -74.9375 C 1.6875 -76.5 0.902344 -78.351562 0.902344 -80.480469 C 0.902344 -82.691406 1.6875 -84.582031 3.25 -86.144531 C 4.816406 -87.710938 6.703125 -88.492188 8.914062 -88.492188 L 60.722656 -88.492188 C 65.734375 -88.492188 70.304688 -87.253906 74.433594 -84.777344 C 78.492188 -82.339844 81.738281 -79.09375 84.175781 -75.035156 C 86.652344 -70.90625 87.890625 -66.335938 87.890625 -61.324219 C 87.890625 -57 86.929688 -52.910156 85.003906 -49.0625 C 83.066406 -45.1875 80.351562 -41.992188 76.863281 -39.46875 L 74.214844 -43.132812 L 76.238281 -47.171875 C 80.847656 -44.867188 84.523438 -41.527344 87.261719 -37.15625 C 90.011719 -32.769531 91.382812 -27.972656 91.382812 -22.769531 C 91.382812 -19.003906 90.652344 -15.464844 89.191406 -12.152344 C 87.761719 -8.90625 85.800781 -6.039062 83.3125 -3.550781 C 80.914062 -1.152344 78.078125 0.78125 74.800781 2.253906 C 71.441406 3.761719 67.875 4.519531 64.09375 4.519531 L 8.914062 4.519531 C 6.703125 4.519531 4.816406 3.734375 3.25 2.171875 C 1.6875 0.605469 0.902344 -1.28125 0.902344 -3.492188 C 0.902344 -5.707031 1.6875 -7.59375 3.25 -9.160156 C 4.816406 -10.722656 6.703125 -11.507812 8.914062 -11.507812 L 17.832031 -11.507812 L 17.832031 -6.988281 L 13.3125 -6.988281 L 13.3125 -38.554688 L 17.832031 -38.554688 L 17.832031 -34.035156 L 8.914062 -34.035156 C 6.703125 -34.035156 4.816406 -34.816406 3.25 -36.382812 C 1.6875 -37.949219 0.902344 -39.835938 0.902344 -42.046875 C 0.902344 -44.3125 1.71875 -46.214844 3.347656 -47.746094 C 4.902344 -49.207031 6.757812 -49.9375 8.914062 -49.9375 L 17.832031 -49.9375 L 17.832031 -45.421875 L 13.3125 -45.421875 L 13.3125 -77.109375 L 17.832031 -77.109375 L 17.832031 -72.589844 Z M 8.914062 -81.625 L 22.347656 -81.625 L 22.347656 -40.902344 L 8.914062 -40.902344 C 9.144531 -40.902344 9.355469 -40.992188 9.542969 -41.167969 C 9.808594 -41.417969 9.941406 -41.710938 9.941406 -42.046875 C 9.941406 -42.332031 9.839844 -42.574219 9.640625 -42.773438 C 9.441406 -42.972656 9.199219 -43.070312 8.914062 -43.070312 L 22.347656 -43.070312 L 22.347656 -2.46875 L 8.914062 -2.46875 C 9.199219 -2.46875 9.441406 -2.570312 9.640625 -2.769531 C 9.839844 -2.96875 9.941406 -3.210938 9.941406 -3.492188 C 9.941406 -3.777344 9.839844 -4.019531 9.640625 -4.21875 C 9.441406 -4.417969 9.199219 -4.519531 8.914062 -4.519531 L 64.09375 -4.519531 C 66.582031 -4.519531 68.917969 -5.007812 71.097656 -5.988281 C 73.367188 -7.007812 75.308594 -8.324219 76.925781 -9.941406 C 78.613281 -11.632812 79.949219 -13.585938 80.925781 -15.800781 C 81.875 -17.949219 82.347656 -20.273438 82.347656 -22.769531 C 82.347656 -26.242188 81.433594 -29.4375 79.605469 -32.359375 C 77.765625 -35.296875 75.292969 -37.542969 72.195312 -39.089844 L 65.523438 -42.425781 L 71.570312 -46.792969 C 73.863281 -48.449219 75.644531 -50.554688 76.921875 -53.105469 C 78.210938 -55.679688 78.855469 -58.421875 78.855469 -61.324219 C 78.855469 -64.667969 78.046875 -67.6875 76.425781 -70.386719 C 74.765625 -73.152344 72.550781 -75.367188 69.78125 -77.027344 C 67.085938 -78.648438 64.066406 -79.457031 60.722656 -79.457031 L 8.914062 -79.457031 C 9.199219 -79.457031 9.441406 -79.554688 9.640625 -79.757812 C 9.839844 -79.957031 9.941406 -80.195312 9.941406 -80.480469 C 9.941406 -80.84375 9.839844 -81.128906 9.640625 -81.328125 C 9.441406 -81.527344 9.199219 -81.625 8.914062 -81.625 Z M 24.820312 -49.9375 L 60.722656 -49.9375 C 62.78125 -49.9375 64.65625 -50.449219 66.347656 -51.464844 C 68.097656 -52.511719 69.476562 -53.90625 70.492188 -55.648438 C 71.488281 -57.355469 71.988281 -59.246094 71.988281 -61.324219 C 71.988281 -63.402344 71.488281 -65.292969 70.492188 -67 C 69.488281 -68.726562 68.121094 -70.089844 66.398438 -71.097656 C 64.691406 -72.089844 62.800781 -72.589844 60.722656 -72.589844 L 24.820312 -72.589844 L 24.820312 -77.109375 L 29.335938 -77.109375 L 29.335938 -45.421875 L 24.820312 -45.421875 Z M 20.300781 -40.902344 L 20.300781 -81.625 L 60.722656 -81.625 C 64.429688 -81.625 67.835938 -80.71875 70.949219 -78.902344 C 74.042969 -77.097656 76.496094 -74.648438 78.300781 -71.554688 C 80.117188 -68.441406 81.023438 -65.03125 81.023438 -61.324219 C 81.023438 -57.617188 80.117188 -54.210938 78.300781 -51.097656 C 76.503906 -48.019531 74.070312 -45.558594 71 -43.714844 C 67.875 -41.839844 64.449219 -40.902344 60.722656 -40.902344 Z M 24.820312 -11.507812 L 64.09375 -11.507812 C 67.265625 -11.507812 69.9375 -12.589844 72.105469 -14.761719 C 74.277344 -16.929688 75.359375 -19.601562 75.359375 -22.769531 C 75.359375 -24.847656 74.863281 -26.738281 73.867188 -28.445312 C 72.855469 -30.179688 71.5 -31.550781 69.800781 -32.558594 C 68.144531 -33.542969 66.242188 -34.035156 64.09375 -34.035156 L 24.820312 -34.035156 L 24.820312 -38.554688 L 29.335938 -38.554688 L 29.335938 -6.988281 L 24.820312 -6.988281 Z M 20.300781 -2.46875 L 20.300781 -43.070312 L 64.09375 -43.070312 C 67.894531 -43.070312 71.332031 -42.160156 74.414062 -40.332031 C 77.453125 -38.527344 79.875 -36.082031 81.671875 -33 C 83.488281 -29.886719 84.398438 -26.476562 84.398438 -22.769531 C 84.398438 -17.105469 82.429688 -12.304688 78.496094 -8.371094 C 74.5625 -4.4375 69.761719 -2.46875 64.09375 -2.46875 Z M 20.300781 -2.46875 "/></g></g></g><g fill="#f3efeb" fill-opacity="1"><g transform="translate(0.479064, 91.21966)"><g><path d="M 8.921875 -77.109375 C 7.953125 -77.109375 7.125 -77.445312 6.4375 -78.125 C 5.757812 -78.8125 5.421875 -79.597656 5.421875 -80.484375 C 5.421875 -81.441406 5.757812 -82.265625 6.4375 -82.953125 C 7.125 -83.640625 7.953125 -83.984375 8.921875 -83.984375 L 60.71875 -83.984375 C 64.894531 -83.984375 68.691406 -82.957031 72.109375 -80.90625 C 75.523438 -78.851562 78.253906 -76.117188 80.296875 -72.703125 C 82.347656 -69.296875 83.375 -65.503906 83.375 -61.328125 C 83.375 -57.710938 82.570312 -54.296875 80.96875 -51.078125 C 79.363281 -47.867188 77.113281 -45.222656 74.21875 -43.140625 C 78.070312 -41.203125 81.144531 -38.40625 83.4375 -34.75 C 85.726562 -31.101562 86.875 -27.109375 86.875 -22.765625 C 86.875 -19.640625 86.269531 -16.707031 85.0625 -13.96875 C 83.851562 -11.238281 82.207031 -8.832031 80.125 -6.75 C 78.113281 -4.738281 75.722656 -3.109375 72.953125 -1.859375 C 70.179688 -0.617188 67.226562 0 64.09375 0 L 8.921875 0 C 7.953125 0 7.125 -0.335938 6.4375 -1.015625 C 5.757812 -1.703125 5.421875 -2.53125 5.421875 -3.5 C 5.421875 -4.457031 5.757812 -5.273438 6.4375 -5.953125 C 7.125 -6.640625 7.953125 -6.984375 8.921875 -6.984375 L 17.828125 -6.984375 L 17.828125 -38.5625 L 8.921875 -38.5625 C 7.953125 -38.5625 7.125 -38.898438 6.4375 -39.578125 C 5.757812 -40.265625 5.421875 -41.085938 5.421875 -42.046875 C 5.421875 -43.015625 5.757812 -43.816406 6.4375 -44.453125 C 7.125 -45.097656 7.953125 -45.421875 8.921875 -45.421875 L 17.828125 -45.421875 L 17.828125 -77.109375 Z M 24.8125 -45.421875 L 60.71875 -45.421875 C 63.613281 -45.421875 66.265625 -46.144531 68.671875 -47.59375 C 71.085938 -49.039062 72.992188 -50.96875 74.390625 -53.375 C 75.796875 -55.78125 76.5 -58.429688 76.5 -61.328125 C 76.5 -64.210938 75.796875 -66.859375 74.390625 -69.265625 C 72.992188 -71.679688 71.085938 -73.59375 68.671875 -75 C 66.265625 -76.40625 63.613281 -77.109375 60.71875 -77.109375 L 24.8125 -77.109375 Z M 24.8125 -6.984375 L 64.09375 -6.984375 C 68.507812 -6.984375 72.242188 -8.507812 75.296875 -11.5625 C 78.347656 -14.613281 79.875 -18.347656 79.875 -22.765625 C 79.875 -25.660156 79.171875 -28.3125 77.765625 -30.71875 C 76.367188 -33.132812 74.484375 -35.046875 72.109375 -36.453125 C 69.742188 -37.859375 67.070312 -38.5625 64.09375 -38.5625 L 24.8125 -38.5625 Z M 24.8125 -6.984375 "/></g></g></g></g></g></svg>