<svg xmlns="http://www.w3.org/2000/svg" xmlns:xlink="http://www.w3.org/1999/xlink" width="512" zoomAndPan="magnify" viewBox="0 0 384 383.999986" height="512" preserveAspectRatio="xMidYMid meet" version="1.0"><defs><g/><clipPath id="56297dbbaa"><rect x="0" width="243" y="0" height="311"/></clipPath></defs><rect x="-38.4" width="460.8" fill="#ffffff" y="-38.399999" height="460.799983" fill-opacity="1"/><rect x="-38.4" width="460.8" fill="#1d3f69" y="-38.399999" height="460.799983" fill-opacity="1"/><g fill="#f3efeb" fill-opacity="1"><g transform="translate(145.595197, 353.110585)"><g><path d="M 156.171875 -217.765625 C 160.523438 -217.765625 164.203125 -216.207031 167.203125 -213.09375 C 170.210938 -209.988281 171.71875 -206.363281 171.71875 -202.21875 L 171.71875 -82.125 C 171.71875 -66.15625 168.660156 -52.46875 162.546875 -41.0625 C 156.429688 -29.65625 148.34375 -20.53125 138.28125 -13.6875 C 128.21875 -6.84375 117.171875 -2.28125 105.140625 0 C 93.117188 2.28125 81.039062 2.28125 68.90625 0 C 56.769531 -2.28125 45.671875 -6.84375 35.609375 -13.6875 C 25.554688 -20.53125 17.46875 -29.65625 11.34375 -41.0625 C 5.226562 -52.46875 2.171875 -66.15625 2.171875 -82.125 C 2.171875 -86.269531 3.726562 -89.898438 6.84375 -93.015625 C 9.957031 -96.128906 13.585938 -97.6875 17.734375 -97.6875 C 22.085938 -97.6875 25.816406 -96.128906 28.921875 -93.015625 C 32.035156 -89.898438 33.59375 -86.269531 33.59375 -82.125 C 33.59375 -70.300781 36.1875 -60.5 41.375 -52.71875 C 46.5625 -44.945312 53.195312 -39.09375 61.28125 -35.15625 C 69.375 -31.21875 77.984375 -29.25 87.109375 -29.25 C 96.234375 -29.25 104.835938 -31.21875 112.921875 -35.15625 C 121.015625 -39.09375 127.648438 -44.945312 132.828125 -52.71875 C 138.015625 -60.5 140.609375 -70.300781 140.609375 -82.125 L 140.609375 -186.65625 L 102.65625 -186.65625 C 98.300781 -186.65625 94.617188 -188.15625 91.609375 -191.15625 C 88.609375 -194.164062 87.109375 -197.851562 87.109375 -202.21875 C 87.109375 -206.363281 88.609375 -209.988281 91.609375 -213.09375 C 94.617188 -216.207031 98.300781 -217.765625 102.65625 -217.765625 Z M 156.171875 -217.765625 "/></g></g></g><g transform="matrix(1, 0, 0, 1, 12, 30)"><g clip-path="url(#56297dbbaa)"><g fill="#1d3f69" fill-opacity="1"><g transform="translate(2.537627, 232.671602)"><g><path d="M 198.746094 -121.636719 C 209.78125 -115.75 218.6875 -107.695312 225.460938 -97.476562 C 232.4375 -86.945312 235.925781 -75.136719 235.925781 -62.046875 C 235.925781 -48.542969 232.589844 -36.171875 225.921875 -24.929688 C 219.328125 -13.820312 210.472656 -4.964844 199.363281 1.628906 C 188.121094 8.296875 175.75 11.632812 162.246094 11.632812 L 29.472656 11.632812 C 22.121094 11.632812 15.761719 8.945312 10.386719 3.574219 C 5.011719 -1.800781 2.328125 -8.164062 2.328125 -15.511719 C 2.328125 -23.066406 5.011719 -29.53125 10.386719 -34.90625 C 15.761719 -40.28125 22.121094 -42.964844 29.472656 -42.964844 L 43.742188 -42.964844 L 43.742188 -31.332031 L 32.109375 -31.332031 L 32.109375 -92.757812 L 43.742188 -92.757812 L 43.742188 -81.125 L 29.472656 -81.125 C 22.199219 -81.125 15.882812 -83.710938 10.527344 -88.890625 C 5.058594 -94.175781 2.328125 -100.636719 2.328125 -108.269531 C 2.328125 -115.902344 5.058594 -122.359375 10.527344 -127.644531 C 15.882812 -132.824219 22.199219 -135.414062 29.472656 -135.414062 L 43.742188 -135.414062 L 43.742188 -123.78125 L 32.109375 -123.78125 L 32.109375 -186.136719 L 43.742188 -186.136719 L 43.742188 -174.5 L 29.472656 -174.5 C 22.199219 -174.5 15.882812 -177.089844 10.527344 -182.269531 C 5.058594 -187.554688 2.328125 -194.011719 2.328125 -201.644531 C 2.328125 -208.996094 5.011719 -215.355469 10.386719 -220.730469 C 15.761719 -226.105469 22.121094 -228.792969 29.472656 -228.792969 L 153.871094 -228.792969 C 167.410156 -228.792969 179.808594 -225.386719 191.066406 -218.582031 C 202.160156 -211.878906 210.996094 -202.921875 217.574219 -191.714844 C 224.226562 -180.382812 227.550781 -167.976562 227.550781 -154.492188 C 227.550781 -144.160156 225.167969 -134.289062 220.398438 -124.882812 C 215.539062 -115.285156 208.625 -107.539062 199.660156 -101.648438 L 193.269531 -111.371094 Z M 187.796875 -101.105469 L 170.5 -110.328125 L 186.882812 -121.09375 C 192.394531 -124.714844 196.648438 -129.484375 199.644531 -135.398438 C 202.738281 -141.5 204.28125 -147.867188 204.28125 -154.492188 C 204.28125 -163.757812 202.023438 -172.242188 197.507812 -179.9375 C 192.917969 -187.753906 186.761719 -194 179.03125 -198.671875 C 171.472656 -203.238281 163.085938 -205.523438 153.871094 -205.523438 L 29.472656 -205.523438 C 28.546875 -205.523438 27.671875 -205.109375 26.839844 -204.277344 C 26.007812 -203.449219 25.59375 -202.570312 25.59375 -201.644531 C 25.59375 -200.59375 25.960938 -199.710938 26.699219 -198.996094 C 27.546875 -198.179688 28.472656 -197.769531 29.472656 -197.769531 L 55.375 -197.769531 L 55.375 -112.144531 L 29.472656 -112.144531 C 28.472656 -112.144531 27.546875 -111.738281 26.699219 -110.917969 C 25.960938 -110.203125 25.59375 -109.320312 25.59375 -108.269531 C 25.59375 -107.214844 25.960938 -106.332031 26.699219 -105.621094 C 27.546875 -104.800781 28.472656 -104.390625 29.472656 -104.390625 L 55.375 -104.390625 L 55.375 -19.699219 L 29.472656 -19.699219 C 28.546875 -19.699219 27.671875 -19.285156 26.839844 -18.453125 C 26.007812 -17.621094 25.59375 -16.640625 25.59375 -15.511719 C 25.59375 -14.585938 26.007812 -13.710938 26.839844 -12.878906 C 27.671875 -12.050781 28.546875 -11.632812 29.472656 -11.632812 L 162.246094 -11.632812 C 171.496094 -11.632812 179.910156 -13.882812 187.488281 -18.378906 C 195.195312 -22.953125 201.335938 -29.097656 205.910156 -36.804688 C 210.410156 -44.382812 212.660156 -52.796875 212.660156 -62.046875 C 212.660156 -70.464844 210.460938 -77.988281 206.0625 -84.625 C 201.460938 -91.570312 195.371094 -97.066406 187.796875 -101.105469 Z M 75.074219 -135.414062 L 153.871094 -135.414062 C 159.136719 -135.414062 163.6875 -137.328125 167.515625 -141.15625 C 171.347656 -144.988281 173.261719 -149.433594 173.261719 -154.492188 C 173.261719 -159.835938 171.300781 -164.53125 167.378906 -168.585938 C 163.566406 -172.53125 159.0625 -174.5 153.871094 -174.5 L 75.074219 -174.5 L 75.074219 -186.136719 L 86.707031 -186.136719 L 86.707031 -123.78125 L 75.074219 -123.78125 Z M 63.441406 -112.144531 L 63.441406 -197.769531 L 153.871094 -197.769531 C 165.640625 -197.769531 175.71875 -193.433594 184.105469 -184.761719 C 192.386719 -176.199219 196.527344 -166.109375 196.527344 -154.492188 C 196.527344 -143.007812 192.339844 -133.078125 183.96875 -124.707031 C 175.597656 -116.332031 165.5625 -112.144531 153.871094 -112.144531 Z M 161.9375 -42.964844 C 167.28125 -42.964844 171.878906 -44.824219 175.726562 -48.539062 C 179.460938 -52.148438 181.328125 -56.648438 181.328125 -62.046875 C 181.328125 -67.3125 179.464844 -71.808594 175.738281 -75.535156 C 172.011719 -79.261719 167.515625 -81.125 162.246094 -81.125 L 75.074219 -81.125 L 75.074219 -92.757812 L 86.707031 -92.757812 L 86.707031 -31.332031 L 75.074219 -31.332031 L 75.074219 -42.964844 Z M 161.9375 -19.699219 L 63.441406 -19.699219 L 63.441406 -104.390625 L 162.246094 -104.390625 C 173.941406 -104.390625 183.921875 -100.257812 192.191406 -91.988281 C 200.460938 -83.71875 204.59375 -73.738281 204.59375 -62.046875 C 204.59375 -50.066406 200.359375 -39.988281 191.890625 -31.808594 C 183.535156 -23.734375 173.550781 -19.699219 161.9375 -19.699219 Z M 161.9375 -19.699219 "/></g></g></g><g fill="#f3efeb" fill-opacity="1"><g transform="translate(2.537627, 232.671602)"><g><path d="M 193.265625 -111.375 C 202.566406 -106.40625 210.0625 -99.628906 215.75 -91.046875 C 221.4375 -82.460938 224.28125 -72.796875 224.28125 -62.046875 C 224.28125 -50.671875 221.488281 -40.273438 215.90625 -30.859375 C 210.320312 -21.453125 202.828125 -13.957031 193.421875 -8.375 C 184.015625 -2.789062 173.625 0 162.25 0 L 29.46875 0 C 25.332031 0 21.710938 -1.550781 18.609375 -4.65625 C 15.503906 -7.757812 13.953125 -11.378906 13.953125 -15.515625 C 13.953125 -19.859375 15.503906 -23.578125 18.609375 -26.671875 C 21.710938 -29.773438 25.332031 -31.328125 29.46875 -31.328125 L 43.734375 -31.328125 L 43.734375 -92.75 L 29.46875 -92.75 C 25.332031 -92.75 21.710938 -94.25 18.609375 -97.25 C 15.503906 -100.25 13.953125 -103.921875 13.953125 -108.265625 C 13.953125 -112.609375 15.503906 -116.28125 18.609375 -119.28125 C 21.710938 -122.28125 25.332031 -123.78125 29.46875 -123.78125 L 43.734375 -123.78125 L 43.734375 -186.125 L 29.46875 -186.125 C 25.332031 -186.125 21.710938 -187.625 18.609375 -190.625 C 15.503906 -193.625 13.953125 -197.296875 13.953125 -201.640625 C 13.953125 -205.773438 15.503906 -209.394531 18.609375 -212.5 C 21.710938 -215.601562 25.332031 -217.15625 29.46875 -217.15625 L 153.875 -217.15625 C 165.25 -217.15625 175.640625 -214.3125 185.046875 -208.625 C 194.453125 -202.9375 201.945312 -195.332031 207.53125 -185.8125 C 213.113281 -176.300781 215.90625 -165.859375 215.90625 -154.484375 C 215.90625 -146.003906 213.941406 -137.882812 210.015625 -130.125 C 206.085938 -122.375 200.503906 -116.125 193.265625 -111.375 Z M 75.078125 -123.78125 L 153.875 -123.78125 C 162.351562 -123.78125 169.640625 -126.828125 175.734375 -132.921875 C 181.835938 -139.023438 184.890625 -146.210938 184.890625 -154.484375 C 184.890625 -162.960938 181.835938 -170.351562 175.734375 -176.65625 C 169.640625 -182.96875 162.351562 -186.125 153.875 -186.125 L 75.078125 -186.125 Z M 161.9375 -31.328125 C 170.414062 -31.328125 177.703125 -34.273438 183.796875 -40.171875 C 189.898438 -46.066406 192.953125 -53.359375 192.953125 -62.046875 C 192.953125 -70.523438 189.953125 -77.757812 183.953125 -83.75 C 177.960938 -89.75 170.726562 -92.75 162.25 -92.75 L 75.078125 -92.75 L 75.078125 -31.328125 Z M 161.9375 -31.328125 "/></g></g></g></g></g></svg>